<svg xmlns="http://www.w3.org/2000/svg" height="1rem" width="1rem" viewBox="-.5 10.5 34 11"><path d="M31.7 25.7c0 0 0 0 0 0l-9.7-9.7 9.7-9.7c0 0 0 0 0 0 0.1-0.1 0.2-0.2 0.2-0.4 0.1-0.4 0.1-0.8-0.2-1.1l-4.6-4.6c-0.3-0.3-0.7-0.4-1.1-0.2-0.1 0-0.3 0.1-0.4 0.2 0 0 0 0 0 0l-9.7 9.7-9.7-9.7c0 0 0 0 0 0-0.1-0.1-0.2-0.2-0.4-0.2-0.4-0.1-0.8-0.1-1.1 0.2l-4.6 4.6c-0.3 0.3-0.4 0.7-0.2 1.1 0 0.1 0.1 0.3 0.2 0.4 0 0 0 0 0 0l9.7 9.7-9.7 9.7c0 0 0 0 0 0-0.1 0.1-0.2 0.2-0.2 0.4-0.1 0.4-0.1 0.8 0.2 1.1l4.6 4.6c0.3 0.3 0.7 0.4 1.1 0.2 0.1 0 0.3-0.1 0.4-0.2 0 0 0 0 0 0l9.7-9.7 9.7 9.7c0 0 0 0 0 0 0.1 0.1 0.2 0.2 0.4 0.2 0.4 0.1 0.8 0.1 1.1-0.2l4.6-4.6c0.3-0.3 0.4-0.7 0.2-1.1 0-0.1-0.1-0.3-0.2-0.4z"/></svg>