<?xml version="1.0" encoding="UTF-8" standalone="no"?>
<!DOCTYPE svg  PUBLIC '-//W3C//DTD SVG 20010904//EN'  'http://www.w3.org/TR/2001/REC-SVG-20010904/DTD/svg10.dtd'>
<svg xmlns="http://www.w3.org/2000/svg" height="35pt" width="35pt" version="1.0" preserveAspectRatio="xMidYMid meet" viewBox="0 0 300.0 300.0">
 <g stroke="#3da639" transform="translate(0 300) scale(0.1 -0.1)" fill="#1d531d">
  <path d="m1385 2934c-222-25-339-55-498-128-303-138-543-370-692-666-112-224-157-420-154-679 1-85 5-170 10-190 4-20 10-52 13-71s11-53 17-75c5-22 14-56 19-75 14-53 77-196 122-278 147-267 419-512 698-627 102-42 109-37 170 130 10 28 28 75 40 105s33 84 46 120c14 36 37 94 50 130 66 171 77 198 94 245 10 28 27 73 38 102 25 66 16 86-58 125-115 62-188 155-225 288-23 82-11 184 33 280 36 76 124 163 209 203 63 30 75 32 173 32 97 0 110-3 172-32 228-107 319-363 208-583-37-73-113-149-187-186-30-16-60-39-66-52-11-24-5-44 56-202 25-65 61-159 97-255 10-27 30-79 43-115 45-115 79-204 101-262 25-69 48-98 77-98 33 0 216 92 318 160 154 104 317 273 418 435 68 109 154 312 179 425 4 19 9 40 10 45 29 129 35 424 10 546-6 31-23 108-29 135-15 64-66 192-110 277-197 388-559 668-982 761-128 28-317 41-420 30zm360-139c273-57 496-176 686-365 112-111 182-207 251-344 101-200 141-373 141-601 0-166-15-270-63-420-102-316-343-602-641-759-50-27-91-46-93-45-1 2-66 169-143 371l-140 368 42 24c61 36 158 145 194 218 33 67 61 177 61 243 0 171-105 361-253 456-97 63-174 84-302 83-94 0-120-4-178-27-169-66-284-188-338-357-24-76-28-200-9-281 29-125 123-261 229-328l50-32-26-67c-64-171-255-667-258-670-2-2-23 6-47 18-330 167-568 439-683 783-48 143-65 257-66 422 0 282 71 514 230 752 199 298 534 507 906 568 113 18 339 13 450-10z"/>
 </g>
</svg>
